<svg width="20" height="24" viewBox="0 0 20 24" fill="none" xmlns="http://www.w3.org/2000/svg">
<path d="M2.875 4C1.83947 4 1 4.85626 1 5.9125V17.3875C1 18.4437 1.83947 19.3 2.875 19.3H17.125C18.1605 19.3 19 18.4437 19 17.3875V5.9125C19 4.85626 18.1605 4 17.125 4H2.875Z" fill="black"/>
<path d="M5.27249 13.6516C4.97965 13.6516 4.78366 13.4429 4.78366 13.1196V10.8391H4.76521L4.41242 11.1089C4.32941 11.1725 4.27638 11.1929 4.18414 11.1929C4.00198 11.1929 3.86133 11.0427 3.86133 10.8289C3.86133 10.6788 3.91667 10.5566 4.04579 10.4599L4.64992 10.0145C4.84361 9.87192 5.01193 9.85156 5.20101 9.85156C5.5538 9.85156 5.76133 10.0857 5.76133 10.4548V13.1196C5.76133 13.4429 5.56533 13.6516 5.27249 13.6516Z" fill="white"/>
<path d="M7.9471 13.6516C7.07289 13.6516 6.521 12.9335 6.521 11.7441C6.521 10.5472 7.07952 9.85156 7.9471 9.85156C8.81468 9.85156 9.371 10.5447 9.371 11.7416C9.371 12.9285 8.82131 13.6516 7.9471 13.6516ZM7.9471 12.8387C8.23409 12.8387 8.41732 12.4971 8.41732 11.7441C8.41732 10.9886 8.23409 10.6644 7.9471 10.6644C7.66011 10.6644 7.47468 10.9886 7.47468 11.7441C7.47468 12.4971 7.66011 12.8387 7.9471 12.8387Z" fill="white"/>
<path d="M11.5548 13.6516C10.7061 13.6516 10.1309 13.2224 10.1309 12.5762C10.1309 12.0772 10.4725 11.7478 10.931 11.6655V11.6455C10.532 11.5582 10.2455 11.2488 10.2455 10.8446C10.2455 10.2682 10.7745 9.85156 11.5548 9.85156C12.335 9.85156 12.864 10.2682 12.864 10.8471C12.864 11.2438 12.5775 11.5582 12.1829 11.6455V11.6655C12.6414 11.7478 12.9809 12.0797 12.9809 12.5787C12.9809 13.2224 12.399 13.6516 11.5548 13.6516ZM11.5548 11.3586C11.7796 11.3586 11.9427 11.1939 11.9427 10.9544C11.9427 10.7149 11.7774 10.5527 11.5548 10.5527C11.3321 10.5527 11.169 10.7149 11.169 10.9544C11.169 11.1939 11.3299 11.3586 11.5548 11.3586ZM11.5548 12.948C11.8171 12.948 11.9934 12.7583 11.9934 12.4988C11.9934 12.2443 11.8171 12.0597 11.5548 12.0597C11.2925 12.0597 11.1161 12.2443 11.1161 12.4988C11.1161 12.7583 11.2925 12.948 11.5548 12.948Z" fill="white"/>
<path d="M15.1668 13.6516C14.2926 13.6516 13.7407 12.9335 13.7407 11.7441C13.7407 10.5472 14.2992 9.85156 15.1668 9.85156C16.0344 9.85156 16.5907 10.5447 16.5907 11.7416C16.5907 12.9285 16.041 13.6516 15.1668 13.6516ZM15.1668 12.8387C15.4538 12.8387 15.637 12.4971 15.637 11.7441C15.637 10.9886 15.4538 10.6644 15.1668 10.6644C14.8798 10.6644 14.6944 10.9886 14.6944 11.7441C14.6944 12.4971 14.8798 12.8387 15.1668 12.8387Z" fill="white"/>
</svg>
